<svg width="139" height="22" viewBox="0 0 139 22" fill="none" xmlns="http://www.w3.org/2000/svg">
<path d="M0 21.8167V0.122223H9.25833C10.2972 0.122223 11.2444 0.336112 12.1 0.76389C12.9759 1.1713 13.7296 1.73148 14.3611 2.44445C14.9926 3.13704 15.4815 3.9213 15.8278 4.79722C16.1741 5.67315 16.3472 6.56945 16.3472 7.48611C16.3472 8.7287 16.0519 9.91019 15.4611 11.0306C14.8907 12.1509 14.0861 13.0676 13.0472 13.7806C12.0287 14.4731 10.8167 14.8194 9.41111 14.8194H5.01111V21.8167H0ZM5.01111 10.45H9.10556C9.49259 10.45 9.84907 10.338 10.175 10.1139C10.5009 9.88982 10.7657 9.5537 10.9694 9.10556C11.1731 8.65741 11.275 8.10741 11.275 7.45556C11.275 6.78333 11.1528 6.23333 10.9083 5.80556C10.6843 5.35741 10.3889 5.03148 10.0222 4.82778C9.67593 4.62407 9.30926 4.52222 8.92222 4.52222H5.01111V10.45Z" fill="#E8E8E8"/>
<path d="M22.9255 0.122223H28.3338L35.7894 21.8167H30.6561L28.9755 16.9583H22.2227L20.5727 21.8167H15.4394L22.9255 0.122223ZM28.1505 13.5056L25.6144 5.16389L23.0172 13.5056H28.1505Z" fill="#E8E8E8"/>
<path d="M39.0192 0.122223L43.6942 9.71667L48.4303 0.122223H53.8998L46.1692 14.4222V21.8167H41.1886V14.3611L33.5803 0.122223H39.0192Z" fill="#E8E8E8"/>
<path d="M55.9189 21.8167V0.122222H70.6467V4.52222H60.9301V9.19722H68.9356V13.2611H60.9301V21.8167H55.9189Z" fill="url(#paint0_linear_402_19)"/>
<path d="M82.5197 22C80.8901 22 79.4132 21.6944 78.0891 21.0833C76.7854 20.4519 75.6549 19.6167 74.6975 18.5778C73.7604 17.5185 73.0373 16.337 72.528 15.0333C72.0188 13.7093 71.7642 12.3444 71.7642 10.9389C71.7642 9.49259 72.029 8.11759 72.5586 6.81389C73.1086 5.51019 73.8623 4.34907 74.8197 3.33056C75.7975 2.29167 76.9484 1.47685 78.2725 0.886111C79.5966 0.29537 81.0429 0 82.6114 0C84.2206 0 85.6771 0.315741 86.9808 0.947223C88.3049 1.55833 89.4354 2.39352 90.3725 3.45278C91.3299 4.51204 92.0632 5.7037 92.5725 7.02778C93.0817 8.33148 93.3364 9.66574 93.3364 11.0306C93.3364 12.4769 93.0716 13.8519 92.5419 15.1556C92.0123 16.4593 91.2586 17.6306 90.2808 18.6694C89.303 19.688 88.1521 20.5028 86.828 21.1139C85.5243 21.7046 84.0882 22 82.5197 22ZM76.8669 11C76.8669 11.8352 76.9891 12.65 77.2336 13.4444C77.478 14.2185 77.8345 14.9111 78.303 15.5222C78.7919 16.1333 79.3929 16.6222 80.1058 16.9889C80.8188 17.3556 81.6336 17.5389 82.5503 17.5389C83.5077 17.5389 84.3429 17.3556 85.0558 16.9889C85.7688 16.6019 86.3595 16.0926 86.828 15.4611C87.2966 14.8296 87.6429 14.1269 87.8669 13.3528C88.1114 12.5583 88.2336 11.7537 88.2336 10.9389C88.2336 10.1037 88.1114 9.29907 87.8669 8.525C87.6225 7.75093 87.2558 7.05833 86.7669 6.44722C86.278 5.81574 85.6771 5.32685 84.9641 4.98056C84.2512 4.63426 83.4466 4.46111 82.5503 4.46111C81.5929 4.46111 80.7577 4.64444 80.0447 5.01111C79.3521 5.37778 78.7614 5.87685 78.2725 6.50833C77.804 7.11944 77.4475 7.82222 77.203 8.61667C76.979 9.39074 76.8669 10.1852 76.8669 11Z" fill="url(#paint1_linear_402_19)"/>
<path d="M105.735 22C104.105 22 102.628 21.6944 101.304 21.0833C100 20.4519 98.87 19.6167 97.9125 18.5778C96.9755 17.5185 96.2524 16.337 95.7431 15.0333C95.2338 13.7093 94.9792 12.3444 94.9792 10.9389C94.9792 9.49259 95.244 8.11759 95.7736 6.81389C96.3236 5.51019 97.0774 4.34907 98.0348 3.33056C99.0125 2.29167 100.163 1.47685 101.488 0.886111C102.812 0.29537 104.258 0 105.826 0C107.436 0 108.892 0.315741 110.196 0.947223C111.52 1.55833 112.651 2.39352 113.588 3.45278C114.545 4.51204 115.278 5.7037 115.788 7.02778C116.297 8.33148 116.551 9.66574 116.551 11.0306C116.551 12.4769 116.287 13.8519 115.757 15.1556C115.227 16.4593 114.474 17.6306 113.496 18.6694C112.518 19.688 111.367 20.5028 110.043 21.1139C108.739 21.7046 107.303 22 105.735 22ZM100.082 11C100.082 11.8352 100.204 12.65 100.449 13.4444C100.693 14.2185 101.05 14.9111 101.518 15.5222C102.007 16.1333 102.608 16.6222 103.321 16.9889C104.034 17.3556 104.849 17.5389 105.765 17.5389C106.723 17.5389 107.558 17.3556 108.271 16.9889C108.984 16.6019 109.575 16.0926 110.043 15.4611C110.512 14.8296 110.858 14.1269 111.082 13.3528C111.326 12.5583 111.449 11.7537 111.449 10.9389C111.449 10.1037 111.326 9.29907 111.082 8.525C110.838 7.75093 110.471 7.05833 109.982 6.44722C109.493 5.81574 108.892 5.32685 108.179 4.98056C107.466 4.63426 106.662 4.46111 105.765 4.46111C104.808 4.46111 103.973 4.64444 103.26 5.01111C102.567 5.37778 101.976 5.87685 101.488 6.50833C101.019 7.11944 100.663 7.82222 100.418 8.61667C100.194 9.39074 100.082 10.1852 100.082 11Z" fill="url(#paint2_linear_402_19)"/>
<path d="M119.447 21.8167V0.122222H127.544C129.928 0.122222 131.914 0.611111 133.503 1.58889C135.112 2.5463 136.324 3.85 137.139 5.5C137.954 7.12963 138.361 8.94259 138.361 10.9389C138.361 13.1389 137.913 15.0537 137.016 16.6833C136.12 18.313 134.857 19.5759 133.228 20.4722C131.618 21.3685 129.724 21.8167 127.544 21.8167H119.447ZM133.258 10.9389C133.258 9.67593 133.034 8.56574 132.586 7.60833C132.138 6.63056 131.486 5.87685 130.63 5.34722C129.775 4.79722 128.746 4.52222 127.544 4.52222H124.458V17.4167H127.544C128.766 17.4167 129.795 17.1417 130.63 16.5917C131.486 16.0213 132.138 15.2472 132.586 14.2694C133.034 13.2713 133.258 12.1611 133.258 10.9389Z" fill="url(#paint3_linear_402_19)"/>
<defs>
<linearGradient id="paint0_linear_402_19" x1="97.1399" y1="0" x2="97.1399" y2="22" gradientUnits="userSpaceOnUse">
<stop stop-color="#FB6A10"/>
<stop offset="1" stop-color="#F7470D"/>
</linearGradient>
<linearGradient id="paint1_linear_402_19" x1="97.1399" y1="0" x2="97.1399" y2="22" gradientUnits="userSpaceOnUse">
<stop stop-color="#FB6A10"/>
<stop offset="1" stop-color="#F7470D"/>
</linearGradient>
<linearGradient id="paint2_linear_402_19" x1="97.1399" y1="0" x2="97.1399" y2="22" gradientUnits="userSpaceOnUse">
<stop stop-color="#FB6A10"/>
<stop offset="1" stop-color="#F7470D"/>
</linearGradient>
<linearGradient id="paint3_linear_402_19" x1="97.1399" y1="0" x2="97.1399" y2="22" gradientUnits="userSpaceOnUse">
<stop stop-color="#FB6A10"/>
<stop offset="1" stop-color="#F7470D"/>
</linearGradient>
</defs>
</svg>
